<svg width="24" height="24" viewBox="0 0 24 24" fill="none" xmlns="http://www.w3.org/2000/svg">
<path d="M5.52 6.9C6.32633 6.9 6.98 6.25081 6.98 5.45C6.98 4.64919 6.32633 4 5.52 4C4.71366 4 4.06 4.64919 4.06 5.45C4.06 6.25081 4.71366 6.9 5.52 6.9Z" fill="black"/>
<path d="M12.05 6.9C12.8563 6.9 13.51 6.25081 13.51 5.45C13.51 4.64919 12.8563 4 12.05 4C11.2437 4 10.59 4.64919 10.59 5.45C10.59 6.25081 11.2437 6.9 12.05 6.9Z" fill="black"/>
<path d="M18.54 6.9C19.3463 6.9 20 6.25081 20 5.45C20 4.64919 19.3463 4 18.54 4C17.7337 4 17.08 4.64919 17.08 5.45C17.08 6.25081 17.7337 6.9 18.54 6.9Z" fill="black"/>
<path d="M5.52 13.45C6.32633 13.45 6.98 12.8008 6.98 12C6.98 11.1992 6.32633 10.55 5.52 10.55C4.71366 10.55 4.06 11.1992 4.06 12C4.06 12.8008 4.71366 13.45 5.52 13.45Z" fill="black"/>
<path d="M12.05 13.45C12.8563 13.45 13.51 12.8008 13.51 12C13.51 11.1992 12.8563 10.55 12.05 10.55C11.2437 10.55 10.59 11.1992 10.59 12C10.59 12.8008 11.2437 13.45 12.05 13.45Z" fill="black"/>
<path d="M18.54 13.45C19.3463 13.45 20 12.8008 20 12C20 11.1992 19.3463 10.55 18.54 10.55C17.7337 10.55 17.08 11.1992 17.08 12C17.08 12.8008 17.7337 13.45 18.54 13.45Z" fill="black"/>
<path d="M5.46 20C6.26634 20 6.92 19.3508 6.92 18.55C6.92 17.7492 6.26634 17.1 5.46 17.1C4.65366 17.1 4 17.7492 4 18.55C4 19.3508 4.65366 20 5.46 20Z" fill="black"/>
<path d="M11.99 20C12.7963 20 13.45 19.3508 13.45 18.55C13.45 17.7492 12.7963 17.1 11.99 17.1C11.1837 17.1 10.53 17.7492 10.53 18.55C10.53 19.3508 11.1837 20 11.99 20Z" fill="black"/>
<path d="M18.54 20C19.3463 20 20 19.3508 20 18.55C20 17.7492 19.3463 17.1 18.54 17.1C17.7337 17.1 17.08 17.7492 17.08 18.55C17.08 19.3508 17.7337 20 18.54 20Z" fill="black"/>
</svg>
