<svg width="24" height="24" viewBox="0 0 24 24" fill="none" xmlns="http://www.w3.org/2000/svg">
<path d="M20.9903 12.09C21.2601 7.13 16.9624 3 11.995 3C7.02762 3 2.99974 7.03 2.99974 12C2.99974 16.97 7.02762 21 11.995 21C14.9534 21 17.5721 19.57 19.2112 17.37" stroke="black" stroke-miterlimit="10" stroke-linecap="round"/>
<path d="M11.8351 15.92C14.2238 15.92 16.1628 13.98 16.1628 11.59C16.1628 9.20001 14.2238 7.26001 11.8351 7.26001C9.44633 7.26001 7.50735 9.20001 7.50735 11.59C7.50735 13.98 9.44633 15.92 11.8351 15.92Z" stroke="black" stroke-miterlimit="10"/>
<path d="M20.9903 11.59C21.0303 12.54 20.9003 13.91 19.3911 14.26C18.6415 14.43 17.8219 14.28 17.2223 13.79C15.3033 12.2 16.5826 8.66 16.5826 8.66" stroke="black" stroke-miterlimit="10" stroke-linecap="round"/>
</svg>
