<svg width="24" height="24" viewBox="0 0 24 24" fill="none" xmlns="http://www.w3.org/2000/svg">
<path d="M20.7818 7.88507C21.1074 7.88507 21.3492 8.18852 21.3027 8.51955C20.9213 10.0552 18.5957 16.2805 17.0701 16.7586C16.6236 16.8966 16.1864 16.9701 15.7957 16.9701H7.90736C6.61433 16.9701 5.57247 15.8759 5.57247 14.5425L4.94922 7.88507H20.7818Z" stroke="black" stroke-miterlimit="10" stroke-linecap="round"/>
<path d="M15.3116 21.0804C15.7329 21.0804 16.0744 20.7264 16.0744 20.2896C16.0744 19.8529 15.7329 19.4988 15.3116 19.4988C14.8903 19.4988 14.5488 19.8529 14.5488 20.2896C14.5488 20.7264 14.8903 21.0804 15.3116 21.0804Z" stroke="black" stroke-miterlimit="10" stroke-linecap="round"/>
<path d="M8.66025 21.0804C9.08153 21.0804 9.42304 20.7264 9.42304 20.2896C9.42304 19.8529 9.08153 19.4988 8.66025 19.4988C8.23897 19.4988 7.89746 19.8529 7.89746 20.2896C7.89746 20.7264 8.23897 21.0804 8.66025 21.0804Z" stroke="black" stroke-miterlimit="10" stroke-linecap="round"/>
<path d="M2.69727 2.68964C3.73913 2.89194 4.52982 3.77469 4.64145 4.86895L5 8.49998" stroke="black" stroke-miterlimit="10" stroke-linecap="round"/>
</svg>
