<svg width="24" height="24" viewBox="0 0 24 24" fill="none" xmlns="http://www.w3.org/2000/svg">
<path d="M7.75707 17.94C6.85707 17.9 5.97707 17.62 5.22707 17.11C3.08707 15.66 1.75707 13.09 2.03707 10.22C2.35707 6.87001 5.03707 4.05001 8.36707 3.58001C11.2771 3.17001 13.9471 4.43001 15.5071 6.57001C15.8571 6.51001 16.2371 6.47001 16.6071 6.47001C19.9171 6.47001 22.5871 9.14001 22.5971 12.45C22.5971 13.96 22.0471 15.34 21.1171 16.4C20.2171 17.43 18.8571 17.95 17.4771 17.95H16.3071" stroke="black" stroke-miterlimit="10" stroke-linecap="round"/>
<path d="M11.6171 9.13001C12.0471 8.48001 12.6071 7.92001 13.2571 7.48001C13.9171 7.03001 14.6871 6.72001 15.5071 6.57001" stroke="black" stroke-miterlimit="10" stroke-linecap="round"/>
<path d="M14.1371 17.56C14.3371 17.65 14.3971 17.9 14.2571 18.07L13.2871 19.25L12.1371 20.65C12.0471 20.76 11.8671 20.67 11.8971 20.54L12.2571 19C12.2871 18.88 12.2271 18.75 12.1071 18.7L10.1671 17.78C9.94709 17.68 9.89709 17.4 10.0571 17.22L12.3571 14.82C12.4471 14.72 12.6171 14.81 12.5871 14.94L12.2371 16.43C12.2071 16.55 12.2671 16.68 12.3871 16.73L14.1371 17.56Z" stroke="black" stroke-miterlimit="10" stroke-linecap="round"/>
</svg>
