<svg width="24" height="24" viewBox="0 0 24 24" fill="none" xmlns="http://www.w3.org/2000/svg">
<path d="M22.1 13.45C22.1 14.96 21.55 16.34 20.62 17.4C19.72 18.43 18.36 18.95 16.98 18.95H7.51C6.52 18.95 5.55 18.67 4.73 18.11C2.59 16.66 1.26 14.09 1.54 11.22C1.86 7.87001 4.54 5.05001 7.87 4.58001C10.78 4.17001 13.45 5.43001 15.01 7.57001C15.36 7.51001 15.74 7.47001 16.11 7.47001C19.42 7.47001 22.1 10.15 22.1 13.46V13.45Z" stroke="black" stroke-miterlimit="10"/>
<path d="M11.13 10.13C11.56 9.48001 12.12 8.92001 12.77 8.48001C13.43 8.03001 14.2 7.72001 15.02 7.57001" stroke="black" stroke-miterlimit="10" stroke-linecap="round"/>
</svg>
